<?xml version="1.0" encoding="UTF-8"?>
<svg width="1365" height="346" viewBox="0 0 1365 346" fill="none" xmlns="http://www.w3.org/2000/svg">
    <path d="M462.715 74.3882C482.074 74.3882 497.053 78.8174 508.101 88.2232C518.602 97.0815 523.877 108.976 523.877 124.204C523.877 135.302 521.09 144.708 515.566 152.421C510.042 159.638 502.528 165.162 492.574 168.745C505.563 171.233 515.566 176.508 522.185 184.521C528.854 192.533 532.138 203.332 532.138 216.62C532.138 236.526 525.221 250.958 511.635 260.364C499.989 268.128 483.666 272.009 462.665 272.009H372.439V74.3882H462.665H462.715ZM402.647 158.244H454.653C468.488 158.244 478.441 155.756 484.562 151.028C490.633 146.051 493.719 138.288 493.719 127.787C493.719 117.834 490.683 110.618 484.562 106.189C478.491 101.461 468.488 99.2712 455.2 99.2712H402.597V158.244H402.647ZM402.647 247.077H458.534C471.274 247.077 481.228 244.887 488.444 241.005C497.302 235.73 502.03 227.419 502.03 216.122C502.03 204.825 498.447 195.917 491.529 190.642C484.612 185.367 473.813 182.878 459.43 182.878H402.697V247.077H402.647Z" fill="#18181D"/>
    <path d="M593.45 128.932V272.059H564.088V128.932H593.45ZM593.45 103.75H564.088V74.3882H593.45V103.75Z" fill="#18181D"/>
    <path d="M1164.72 272.01V128.883H1194.03V160.036C1199.35 143.962 1215.43 128.883 1241.55 128.883H1251.36V158.145H1236.88C1209.8 158.145 1194.08 168.845 1194.08 184.919V271.96H1164.76L1164.72 272.01Z" fill="#18181D"/>
    <path d="M1119.28 140.827C1109.33 130.326 1093.8 125.051 1072.8 125.051C1055.08 125.051 1040.7 128.087 1030.15 134.755C1017.95 141.971 1010.24 153.567 1007.16 169.094L1036.22 171.582C1037.86 163.57 1042.04 157.747 1048.66 153.865C1054.18 150.531 1061.65 148.889 1070.81 148.889C1092.4 148.889 1103.2 158.842 1103.2 178.798V180.689H1058.66C1038.11 180.689 1021.94 187.756 1010.59 202.138C1004.17 210.25 1001.43 218.959 1001.43 228.116C1001.43 252.402 1022.53 272.06 1048.56 272.06C1051.15 272.06 1058.51 271.761 1062.59 271.214C1064.24 271.015 1065.63 270.716 1066.92 270.368C1073.19 269.223 1079.17 267.581 1084.39 265.093C1091.71 261.41 1097.78 256.284 1102.91 250.262V272.06H1132.27V180.739C1132.27 163.321 1127.84 150.033 1119.23 140.876L1119.28 140.827ZM1102.96 212.888C1102.26 222.791 1097.83 235.283 1089.67 242.15C1080.81 249.615 1070.31 249.615 1057.82 249.615C1050.35 249.615 1044.23 247.674 1039.85 244.091C1035.17 240.508 1032.93 236.079 1032.93 230.505C1032.93 213.933 1044.68 204.776 1068.12 203.134H1102.96V212.888Z" fill="#18181D"/>
    <path d="M933.402 74.3882L858.056 239.811L782.71 74.3882H748.869V272.009H778.182V128.932L843.375 272.009H872.737L938.08 128.583V272.009H967.442V74.3882H933.402Z" fill="#18181D"/>
    <path d="M1332.28 247.077V158.195H1364.82V128.932H1332.28V89.0698H1303.01V128.932H1276.54V158.195H1303.01V241.105C1303.01 260.066 1313.71 272.06 1333.92 272.06H1364.87V247.127H1332.33L1332.28 247.077Z" fill="#18181D"/>
    <path d="M682.233 247.077V158.195H714.78V128.932H682.233V89.0698H652.971V128.932H626.495V158.195H652.971V241.105C652.971 260.066 663.671 272.06 683.876 272.06H714.83V247.127H682.283L682.233 247.077Z" fill="#18181D"/>
    <path d="M187.06 248.621H80.6599V257.927H187.06V248.621Z" fill="#18181D"/>
    <path d="M107.235 306.498H27.4602V315.804H107.235V306.498Z" fill="#18181D"/>
    <path d="M53.9862 248.72H0.885742V258.026H53.9862V248.72Z" fill="#18181D"/>
    <path d="M187.061 221.796H107.237V231.102H187.061V221.796Z" fill="#18181D"/>
    <path d="M80.5619 221.796H27.5112V231.102H80.5619V221.796Z" fill="#18181D"/>
    <path d="M187.062 101.611H54.0369V110.918H187.062V101.611Z" fill="#18181D"/>
    <path d="M80.6117 70.7065H27.5112V80.0128H80.6117V70.7065Z" fill="#18181D"/>
    <path d="M257.628 160.036C257.628 160.036 257.728 159.887 257.778 159.787C271.911 135.103 275.594 106.388 268.129 78.9171C260.664 51.4462 242.947 28.5538 218.263 14.4202C202.139 5.2135 183.875 0.336426 165.412 0.336426H54.0851V13.624H165.362H165.76C181.387 13.6737 197.163 17.655 211.694 25.966C249.367 47.5645 266.238 91.4582 255.24 131.52C258.325 118.531 258.126 104.845 254.543 91.6074C248.82 70.6062 235.283 53.0885 216.422 42.2892C204.13 35.2225 190.146 31.5398 176.062 31.49H80.6602V44.7776H176.161C187.608 44.7776 199.153 47.7138 209.803 53.7852C238.17 70.0587 250.363 103.601 240.758 133.511C246.68 110.767 237.075 85.9839 215.725 73.7414C207.663 69.1132 198.556 66.7244 189.349 66.6746H107.185V79.9622H189.349C196.068 79.9622 202.886 81.704 209.106 85.2374C228.266 96.1859 234.935 120.571 224.086 139.731C212.491 135.402 199.95 133.013 186.911 133.013H80.6602V146.3H187.11C232.546 146.4 270.319 178.997 278.48 222.094C270.369 186.611 238.568 160.086 200.696 160.086H54.0353V173.373H200.895C234.288 173.473 261.859 198.157 266.487 230.256C261.958 205.522 240.21 186.661 214.183 186.661H54.0851V199.948H214.183C236.229 199.948 254.095 217.814 254.095 239.861C254.095 261.907 236.229 279.773 214.232 279.773H27.4602V293.061H214.183C240.21 293.061 261.958 274.249 266.487 249.466C261.809 281.614 234.139 306.348 200.696 306.348H133.86V319.636H200.696C237.125 319.636 267.88 295.101 277.435 261.658C267.482 302.367 230.804 332.525 187.11 332.625H54.2344V345.912H186.911C245.635 345.912 293.46 298.137 293.46 239.363C293.46 207.762 279.625 179.345 257.678 159.787L257.628 160.036Z" fill="#18181D"/>
</svg>

