<svg width="129" height="30" viewBox="0 0 129 30" fill="none" xmlns="http://www.w3.org/2000/svg">
<path d="M38.8691 21.2665V8.7312H44.3618C46.9861 8.7312 48.4486 10.5356 48.4486 12.6591C48.4486 14.7826 46.9685 16.587 44.3618 16.587H41.062V21.2665H38.8691ZM44.0612 10.6668H41.062V14.6514H44.0612C45.2991 14.6514 46.1974 13.8627 46.1974 12.6591C46.1974 11.4556 45.2973 10.6668 44.0612 10.6668Z" fill="black"/>
<path d="M56.0959 8.52368C59.845 8.52368 62.4887 11.2676 62.4887 15.0076C62.4887 18.7476 59.845 21.4933 56.0959 21.4933C52.3469 21.4933 49.7031 18.7494 49.7031 15.0094C49.7031 11.2693 52.3469 8.52368 56.0959 8.52368ZM56.0959 10.4788C53.5653 10.4788 51.9525 12.4144 51.9525 15.0094C51.9525 17.5848 53.5653 19.5399 56.0959 19.5399C58.6088 19.5399 60.2393 17.5848 60.2393 15.0094C60.2393 12.4144 58.6071 10.4788 56.0959 10.4788Z" fill="black"/>
<path d="M64.6055 21.2665V8.7312H66.7983V19.3309H72.3087V21.2665H64.6055Z" fill="black"/>
<path d="M79.5627 8.52368C83.3118 8.52368 85.9555 11.2676 85.9555 15.0076C85.9555 18.7476 83.3118 21.4933 79.5627 21.4933C75.8137 21.4933 73.1699 18.7494 73.1699 15.0094C73.1699 11.2693 75.8155 8.52368 79.5627 8.52368ZM79.5627 10.4788C77.0321 10.4788 75.4193 12.4144 75.4193 15.0094C75.4193 17.5848 77.0321 19.5399 79.5627 19.5399C82.0739 19.5399 83.7061 17.5848 83.7061 15.0094C83.7061 12.4144 82.0739 10.4788 79.5627 10.4788Z" fill="black"/>
<path d="M96.7909 21.2665L90.269 12.1345V21.2665H88.0762V8.7312H90.3256L96.7184 17.6222V8.7312H98.9112V21.2683H96.7909V21.2665Z" fill="black"/>
<path d="M101.57 21.2665V8.7312H103.763V21.2683H101.57V21.2665Z" fill="black"/>
<path d="M106.424 21.2665V8.7312H114.99V10.6668H108.617V13.9176H114.861V15.8532H108.617V19.3309H114.99V21.2665H106.424Z" fill="black"/>
<path d="M125.601 21.2665L122.096 16.3602L118.591 21.2665H115.967L120.653 14.8393L116.248 8.7312H118.872L122.096 13.3362L125.302 8.7312H127.946L123.56 14.8216L128.227 21.2683L125.601 21.2665Z" fill="black"/>
<path d="M25.9124 7.49956V14.9991L19.4347 11.2484L12.957 7.49956L19.4347 3.74889L25.9124 0V7.49956Z" fill="#20392B"/>
<path d="M12.9554 15.0008V22.5004L6.47769 18.7497L0 15.0008L6.47769 11.2502L12.9554 7.49951V15.0008Z" fill="#005C30"/>
<path d="M0 7.49931V-0.000244141L6.47769 3.75042L12.9554 7.50108L6.47769 11.25L0 15.0006V7.49931Z" fill="#3AB06A"/>
<path d="M0 22.5003V15.0007L6.47769 18.7514L12.9554 22.5021L6.47769 26.2527L0 29.9998V22.5003Z" fill="#20392B"/>
<path d="M19.4347 11.2502L12.957 7.49951V14.9991V22.4986L19.4347 26.2493L25.9124 30V22.5004V15.0008L19.4347 11.2502Z" fill="#3AB06A"/>
</svg>
